<?xml version="1.0" encoding="UTF-8" standalone="no"?>
<!-- Created with Inkscape (http://www.inkscape.org/) -->

<svg
   width="210mm"
   height="297mm"
   viewBox="0 0 210 297"
   version="1.1"
   id="svg5"
   inkscape:version="1.2.2 (1:1.2.2+202212051550+b0a8486541)"
   sodipodi:docname="bee.svg"
   inkscape:export-filename="mcbee2.png"
   inkscape:export-xdpi="23.555477"
   inkscape:export-ydpi="23.555477"
   xmlns:inkscape="http://www.inkscape.org/namespaces/inkscape"
   xmlns:sodipodi="http://sodipodi.sourceforge.net/DTD/sodipodi-0.dtd"
   xmlns="http://www.w3.org/2000/svg"
   xmlns:svg="http://www.w3.org/2000/svg">
  <sodipodi:namedview
     id="namedview7"
     pagecolor="#505050"
     bordercolor="#eeeeee"
     borderopacity="1"
     inkscape:showpageshadow="0"
     inkscape:pageopacity="0"
     inkscape:pagecheckerboard="0"
     inkscape:deskcolor="#505050"
     inkscape:document-units="mm"
     showgrid="false"
     inkscape:zoom="2"
     inkscape:cx="344"
     inkscape:cy="195.25"
     inkscape:window-width="1920"
     inkscape:window-height="1020"
     inkscape:window-x="0"
     inkscape:window-y="0"
     inkscape:window-maximized="1"
     inkscape:current-layer="layer1" />
  <defs
     id="defs2" />
  <g
     inkscape:label="Layer 1"
     inkscape:groupmode="layer"
     id="layer1">
    <rect
       style="fill:#552200;stroke-width:3;stroke-linejoin:round"
       id="rect2335"
       width="1.5548867"
       height="2.2693536"
       x="50.208828"
       y="70.592812"
       inkscape:export-filename="mcbee1.png"
       inkscape:export-xdpi="23.668381"
       inkscape:export-ydpi="23.668381" />
    <rect
       style="fill:#552200;stroke-width:3;stroke-linejoin:round"
       id="rect2335-7"
       width="1.5548867"
       height="2.2693536"
       x="57.427624"
       y="70.592812" />
    <rect
       style="fill:#ffcc00;stroke-width:2.74015;stroke-linejoin:round"
       id="rect234"
       width="51.075703"
       height="34.91597"
       x="19.984837"
       y="35.894829"
       ry="0.23964004" />
    <rect
       style="fill:#ffd42a;stroke-width:2.74015;stroke-linejoin:round"
       id="rect288"
       width="25.337927"
       height="34.91597"
       x="20.184761"
       y="35.894829"
       ry="0.23964004" />
    <rect
       style="fill:#000000;fill-opacity:0.91;stroke-width:2.74015;stroke-linejoin:round"
       id="rect448"
       width="6.9217076"
       height="7.436739"
       x="19.984837"
       y="45.916073"
       ry="0.23964004" />
    <path
       id="rect448-3"
       style="fill:#000000;fill-opacity:0.907791;stroke-width:2.74015;stroke-linejoin:round"
       d="m 38.52655,45.91606 v 7.436756 h 6.921663 v -0.04444 c 0,0.02472 0.01646,0.04444 0.03708,0.04444 h 2.428509 c 0.02062,0 0.03708,-0.01972 0.03708,-0.04444 v -7.347872 c 0,-0.02472 -0.01646,-0.04444 -0.03708,-0.04444 H 45.48529 c -0.02062,0 -0.03708,0.01972 -0.03708,0.04444 v -0.04444 z" />
    <rect
       style="fill:#502d16;stroke-width:2.74015;stroke-linejoin:round"
       id="rect844"
       width="0.6032272"
       height="34.91597"
       x="61.132854"
       y="35.894829" />
    <rect
       style="fill:#502d16;stroke-width:2.74015;stroke-linejoin:round"
       id="rect844-7"
       width="0.6032272"
       height="34.91597"
       x="65.17807"
       y="35.894829" />
    <rect
       style="fill:#502d16;stroke-width:2.74015;stroke-linejoin:round"
       id="rect844-7-5"
       width="0.6032272"
       height="34.91597"
       x="67.200676"
       y="35.894829" />
    <rect
       style="fill:#502d16;stroke-width:2.74015;stroke-linejoin:round"
       id="rect844-6"
       width="0.6032272"
       height="34.91597"
       x="63.15546"
       y="35.894829" />
    <rect
       style="fill:#502d16;stroke-width:4.20405;stroke-linejoin:round"
       id="rect844-7-3"
       width="1.4199309"
       height="34.91597"
       x="69.223282"
       y="35.894829" />
    <rect
       style="fill:#333333;stroke-width:3.17909;stroke-linejoin:round"
       id="rect1825"
       width="1.9381044"
       height="18.040792"
       x="64.080498"
       y="22.267591"
       transform="matrix(1,0,-0.45497305,0.89050521,0,0)" />
    <rect
       style="fill:#333333;stroke-width:3.17909;stroke-linejoin:round"
       id="rect1825-2"
       width="1.9381044"
       height="18.040792"
       x="81.835968"
       y="22.267591"
       transform="matrix(1,0,-0.45497305,0.89050521,0,0)" />
    <rect
       style="fill:#333333;stroke-width:3;stroke-linejoin:round"
       id="rect2014"
       width="18.4993"
       height="2.1372771"
       x="53.949345"
       y="19.829405" />
    <rect
       style="fill:#333333;stroke-width:3;stroke-linejoin:round"
       id="rect2016"
       width="3.416357"
       height="2.6365058"
       x="55.347206"
       y="25.225611" />
    <rect
       style="fill:#333333;stroke-width:3;stroke-linejoin:round"
       id="rect2018"
       width="3.0798798"
       height="2.9715805"
       x="60.119114"
       y="31.152935" />
    <rect
       style="fill:#333333;stroke-width:3.17909;stroke-linejoin:round"
       id="rect1825-0"
       width="1.9381044"
       height="18.040792"
       x="-34.462498"
       y="22.267591"
       transform="matrix(-1,0,0.45497305,0.89050521,0,0)" />
    <rect
       style="fill:#333333;stroke-width:3.17909;stroke-linejoin:round"
       id="rect1825-2-9"
       width="1.9381044"
       height="18.040792"
       x="-16.707024"
       y="22.267591"
       transform="matrix(-1,0,0.45497305,0.89050521,0,0)" />
    <rect
       style="fill:#333333;stroke-width:3;stroke-linejoin:round"
       id="rect2014-3"
       width="18.4993"
       height="2.1372771"
       x="-44.593651"
       y="19.829403"
       transform="scale(-1,1)" />
    <rect
       style="fill:#333333;stroke-width:3;stroke-linejoin:round"
       id="rect2016-6"
       width="3.416357"
       height="2.6365058"
       x="-43.195789"
       y="25.225609"
       transform="scale(-1,1)" />
    <rect
       style="fill:#333333;stroke-width:3;stroke-linejoin:round"
       id="rect2018-0"
       width="3.0798798"
       height="2.9715805"
       x="-38.423882"
       y="31.152937"
       transform="scale(-1,1)" />
    <rect
       style="fill:#552200;stroke-width:3;stroke-linejoin:round"
       id="rect2335-6"
       width="1.5548867"
       height="2.2693536"
       x="128.35022"
       y="70.592812"
       inkscape:export-filename="mcbee2.png"
       inkscape:export-xdpi="23.668381"
       inkscape:export-ydpi="23.668381" />
    <rect
       style="fill:#552200;stroke-width:3;stroke-linejoin:round"
       id="rect2335-7-2"
       width="1.5548867"
       height="2.2693536"
       x="135.56902"
       y="70.592812" />
    <rect
       style="fill:#ffcc00;stroke-width:2.74015;stroke-linejoin:round"
       id="rect234-6"
       width="51.075703"
       height="34.91597"
       x="98.126228"
       y="35.894829"
       ry="0.23964004" />
    <rect
       style="fill:#ffd42a;stroke-width:2.74015;stroke-linejoin:round"
       id="rect288-1"
       width="25.337927"
       height="34.91597"
       x="98.326164"
       y="35.894829"
       ry="0.23964004" />
    <rect
       style="fill:#000000;fill-opacity:0.91;stroke-width:2.74015;stroke-linejoin:round"
       id="rect448-8"
       width="6.9217076"
       height="7.436739"
       x="98.126228"
       y="45.916069"
       ry="0.23964004" />
    <path
       id="rect448-3-7"
       style="fill:#000000;fill-opacity:0.907791;stroke-width:2.74015;stroke-linejoin:round"
       d="m 116.66795,45.916059 v 7.436756 h 6.92166 v -0.04444 c 0,0.02472 0.0165,0.04444 0.0371,0.04444 h 2.42851 c 0.0206,0 0.0371,-0.01972 0.0371,-0.04444 v -7.347872 c 0,-0.02472 -0.0165,-0.04444 -0.0371,-0.04444 h -2.42851 c -0.0206,0 -0.0371,0.01972 -0.0371,0.04444 v -0.04444 z" />
    <rect
       style="fill:#502d16;stroke-width:2.74015;stroke-linejoin:round"
       id="rect844-9"
       width="0.6032272"
       height="34.91597"
       x="139.27425"
       y="35.894829" />
    <rect
       style="fill:#502d16;stroke-width:2.74015;stroke-linejoin:round"
       id="rect844-7-2"
       width="0.6032272"
       height="34.91597"
       x="143.31946"
       y="35.894829" />
    <rect
       style="fill:#502d16;stroke-width:2.74015;stroke-linejoin:round"
       id="rect844-7-5-0"
       width="0.6032272"
       height="34.91597"
       x="145.34206"
       y="35.894829" />
    <rect
       style="fill:#502d16;stroke-width:2.74015;stroke-linejoin:round"
       id="rect844-6-2"
       width="0.6032272"
       height="34.91597"
       x="141.29684"
       y="35.894829" />
    <rect
       style="fill:#502d16;stroke-width:4.20405;stroke-linejoin:round"
       id="rect844-7-3-3"
       width="1.4199309"
       height="34.91597"
       x="147.36467"
       y="35.894829" />
    <g
       id="g6077"
       inkscape:transform-center-x="-0.40961902"
       inkscape:transform-center-y="8.0327134"
       transform="matrix(1,0,0,-1,-2.0779335,66.416292)"
       style="fill:#333333">
      <rect
         style="fill:#333333;stroke-width:3.17909;stroke-linejoin:round"
         id="rect1825-7"
         width="1.9381044"
         height="18.040792"
         x="141.55449"
         y="16.233528"
         transform="matrix(1,0,-0.45497305,0.89050521,0,0)" />
      <rect
         style="fill:#333333;stroke-width:3.17909;stroke-linejoin:round"
         id="rect1825-2-5"
         width="1.9381044"
         height="18.040792"
         x="159.30995"
         y="16.233528"
         transform="matrix(1,0,-0.45497305,0.89050521,0,0)" />
      <rect
         style="fill:#333333;stroke-width:3;stroke-linejoin:round"
         id="rect2014-9"
         width="18.4993"
         height="2.1372771"
         x="134.16867"
         y="14.456039" />
      <rect
         style="fill:#333333;stroke-width:3;stroke-linejoin:round"
         id="rect2016-2"
         width="3.416357"
         height="2.6365058"
         x="135.56653"
         y="19.852245" />
      <rect
         style="fill:#333333;stroke-width:3;stroke-linejoin:round"
         id="rect2018-2"
         width="3.0798798"
         height="2.9715805"
         x="140.33844"
         y="25.77957" />
    </g>
    <rect
       style="fill:#ffffff;fill-opacity:0;stroke-width:3;stroke-linejoin:round"
       id="rect384"
       width="50"
       height="50"
       x="97.869034"
       y="22.799084" />
  </g>
</svg>
