<?xml version="1.0" encoding="UTF-8" standalone="no"?>
<!-- Created with Inkscape (http://www.inkscape.org/) -->

<svg
   width="210mm"
   height="297mm"
   viewBox="0 0 210 297"
   version="1.1"
   id="svg442"
   xml:space="preserve"
   inkscape:version="1.2.2 (1:1.2.2+202212051550+b0a8486541)"
   sodipodi:docname="eye.svg"
   xmlns:inkscape="http://www.inkscape.org/namespaces/inkscape"
   xmlns:sodipodi="http://sodipodi.sourceforge.net/DTD/sodipodi-0.dtd"
   xmlns="http://www.w3.org/2000/svg"
   xmlns:svg="http://www.w3.org/2000/svg"><sodipodi:namedview
     id="namedview444"
     pagecolor="#505050"
     bordercolor="#eeeeee"
     borderopacity="1"
     inkscape:showpageshadow="0"
     inkscape:pageopacity="0"
     inkscape:pagecheckerboard="0"
     inkscape:deskcolor="#505050"
     inkscape:document-units="mm"
     showgrid="false"
     inkscape:zoom="0.53228931"
     inkscape:cx="470.60874"
     inkscape:cy="361.64544"
     inkscape:window-width="1920"
     inkscape:window-height="1020"
     inkscape:window-x="0"
     inkscape:window-y="0"
     inkscape:window-maximized="1"
     inkscape:current-layer="layer1" /><defs
     id="defs439" /><g
     inkscape:label="Layer 1"
     inkscape:groupmode="layer"
     id="layer1"><path
       style="fill:#ffffff;stroke:none;stroke-width:3;stroke-linecap:butt;stroke-linejoin:miter;stroke-opacity:1;fill-opacity:1;stroke-dasharray:none"
       d="m 80.857936,128.78571 16.332332,67.33885 16.501832,-67.78739 c 0,0 -9.18696,1.88742 -16.501832,1.85043 -7.314867,-0.037 -16.332332,-1.40189 -16.332332,-1.40189 z"
       id="path684"
       sodipodi:nodetypes="ccczc" /><path
       style="fill:#ffffff;fill-opacity:1;stroke:none;stroke-width:3;stroke-linecap:butt;stroke-linejoin:miter;stroke-opacity:1;stroke-dasharray:none"
       d="M 80.857938,45.023116 97.133806,0 113.6921,45.471656 c 0,0 -9.18696,-1.88742 -16.501831,-1.85043 -7.31487,0.037 -16.332331,1.40189 -16.332331,1.40189 z"
       id="path684-3"
       sodipodi:nodetypes="ccczc" /><path
       id="path1523"
       style="fill:#ffffff;stroke:none;stroke-width:3;stroke-linecap:butt;stroke-linejoin:miter;stroke-opacity:1;fill-opacity:0.99684203;stroke-dasharray:none"
       d="M 154.51667 43.090393 C 148.34179 43.12096 143.00092 45.121742 141.38879 49.482768 C 136.97492 61.422764 147.55863 65.359927 153.53275 62.961532 C 159.50685 60.563139 159.05541 52.090361 159.05541 52.090361 C 159.05541 52.090361 163.72124 53.366659 164.56618 62.603414 C 164.92748 66.553102 166.07815 74.154659 161.99166 78.370927 C 160.14115 80.2802 154.45931 80.667428 154.45931 80.667428 C 154.45931 80.667428 132.21355 51.000943 97.836405 50.715251 C 63.45927 50.429557 41.109635 81.480815 41.109635 81.480815 C 41.109635 81.480815 28.277324 82.051888 30.588314 65.355701 C 32.188822 53.792512 36.266003 52.929069 36.266003 52.929069 C 36.266003 52.929069 35.802047 58.734104 39.867851 62.598246 C 41.990142 64.615272 52.554416 66.523486 54.267489 57.355155 C 56.146921 47.296465 48.408443 44.226468 38.491191 44.376103 C 30.783639 44.492398 15.66478 49.537207 15.76958 68.980286 C 15.880374 89.535429 40.49727 91.902401 40.49727 91.902401 C 40.49727 91.902401 61.923291 123.7096 97.26228 123.6245 C 130.07826 123.54546 154.69908 91.408374 154.69908 91.408374 C 154.69908 91.408374 166.46284 91.094485 174.90302 82.928271 C 182.23259 75.836619 180.15832 60.332163 178.41288 55.561466 C 175.58782 47.839847 164.50923 43.238542 155.11663 43.093494 C 154.9158 43.090392 154.71586 43.089407 154.51667 43.090393 z M 107.85337 65.142794 C 107.85337 65.142794 121.57837 68.724913 128.865 73.491121 C 136.15165 78.257331 143.82068 86.141512 143.82068 86.141512 C 143.82068 86.141512 138.89353 92.761821 130.8809 97.878263 C 122.86827 102.99471 108.38098 107.34487 108.38098 107.34487 C 108.38098 107.34487 118.2107 98.477094 118.30079 86.883586 C 118.39669 74.540043 107.85337 65.142794 107.85337 65.142794 z M 85.95341 66.40835 C 85.95341 66.40835 75.73296 74.47276 75.715792 86.971952 C 75.704058 95.514374 85.045455 106.50719 85.045455 106.50719 C 85.045455 106.50719 74.47005 104.71943 65.538118 99.434241 C 58.664838 95.367196 51.060966 86.217993 51.060966 86.217993 C 51.060966 86.217993 58.156145 79.270443 65.732939 74.064213 C 73.309735 68.857982 85.95341 66.40835 85.95341 66.40835 z " /></g></svg>
